<mxfile host="app.diagrams.net" modified="2023-10-30T13:24:38.271Z" agent="Mozilla/5.0 (Windows NT 10.0; Win64; x64) AppleWebKit/537.36 (KHTML, like Gecko) Chrome/118.0.0.0 Safari/537.36" etag="zdvKQ_mzYYiJQ96pVvDZ" version="21.6.5" type="device">
  <diagram name="Page-1" id="u9EmTm14aIS3WBHgXmOk">
    <mxGraphModel dx="2739" dy="1011" grid="1" gridSize="10" guides="1" tooltips="1" connect="1" arrows="1" fold="1" page="1" pageScale="1" pageWidth="827" pageHeight="1169" math="0" shadow="0">
      <root>
        <mxCell id="0" />
        <mxCell id="1" parent="0" />
        <mxCell id="5rb6dhZWjBb2u9iBjQLc-1" value="Database&lt;br&gt;(MySQL)" style="strokeWidth=2;html=1;shape=mxgraph.flowchart.database;whiteSpace=wrap;" vertex="1" parent="1">
          <mxGeometry x="600" y="560" width="80" height="110" as="geometry" />
        </mxCell>
        <mxCell id="5rb6dhZWjBb2u9iBjQLc-26" style="edgeStyle=orthogonalEdgeStyle;rounded=0;orthogonalLoop=1;jettySize=auto;html=1;exitX=1;exitY=0.5;exitDx=0;exitDy=0;entryX=0;entryY=0.5;entryDx=0;entryDy=0;" edge="1" parent="1" source="5rb6dhZWjBb2u9iBjQLc-35" target="5rb6dhZWjBb2u9iBjQLc-6">
          <mxGeometry relative="1" as="geometry" />
        </mxCell>
        <mxCell id="5rb6dhZWjBb2u9iBjQLc-36" style="edgeStyle=orthogonalEdgeStyle;rounded=0;orthogonalLoop=1;jettySize=auto;html=1;exitX=0.875;exitY=0.5;exitDx=0;exitDy=0;exitPerimeter=0;" edge="1" parent="1" source="5rb6dhZWjBb2u9iBjQLc-2" target="5rb6dhZWjBb2u9iBjQLc-35">
          <mxGeometry relative="1" as="geometry" />
        </mxCell>
        <mxCell id="5rb6dhZWjBb2u9iBjQLc-2" value="Internet" style="ellipse;shape=cloud;whiteSpace=wrap;html=1;" vertex="1" parent="1">
          <mxGeometry x="400" y="70" width="120" height="80" as="geometry" />
        </mxCell>
        <mxCell id="5rb6dhZWjBb2u9iBjQLc-32" style="edgeStyle=orthogonalEdgeStyle;rounded=0;orthogonalLoop=1;jettySize=auto;html=1;exitX=0.5;exitY=1;exitDx=0;exitDy=0;entryX=0.5;entryY=0;entryDx=0;entryDy=0;entryPerimeter=0;" edge="1" parent="1" source="5rb6dhZWjBb2u9iBjQLc-4" target="5rb6dhZWjBb2u9iBjQLc-31">
          <mxGeometry relative="1" as="geometry" />
        </mxCell>
        <mxCell id="5rb6dhZWjBb2u9iBjQLc-4" value="Application&lt;br&gt;server" style="rounded=1;whiteSpace=wrap;html=1;absoluteArcSize=1;arcSize=14;strokeWidth=2;" vertex="1" parent="1">
          <mxGeometry x="590" y="280" width="100" height="100" as="geometry" />
        </mxCell>
        <mxCell id="5rb6dhZWjBb2u9iBjQLc-27" style="edgeStyle=orthogonalEdgeStyle;rounded=0;orthogonalLoop=1;jettySize=auto;html=1;exitX=0.5;exitY=1;exitDx=0;exitDy=0;entryX=0.5;entryY=0;entryDx=0;entryDy=0;" edge="1" parent="1" source="5rb6dhZWjBb2u9iBjQLc-6" target="5rb6dhZWjBb2u9iBjQLc-4">
          <mxGeometry relative="1" as="geometry" />
        </mxCell>
        <mxCell id="5rb6dhZWjBb2u9iBjQLc-6" value="Web&amp;nbsp;Server&lt;br&gt;(Nginx)" style="rounded=1;whiteSpace=wrap;html=1;absoluteArcSize=1;arcSize=14;strokeWidth=2;" vertex="1" parent="1">
          <mxGeometry x="790" y="130" width="100" height="100" as="geometry" />
        </mxCell>
        <mxCell id="5rb6dhZWjBb2u9iBjQLc-34" style="edgeStyle=orthogonalEdgeStyle;rounded=0;orthogonalLoop=1;jettySize=auto;html=1;exitX=1;exitY=0.5;exitDx=0;exitDy=0;entryX=0;entryY=0.5;entryDx=0;entryDy=0;" edge="1" parent="1" source="5rb6dhZWjBb2u9iBjQLc-8" target="5rb6dhZWjBb2u9iBjQLc-17">
          <mxGeometry relative="1" as="geometry" />
        </mxCell>
        <mxCell id="5rb6dhZWjBb2u9iBjQLc-8" value="Browser" style="rounded=1;whiteSpace=wrap;html=1;absoluteArcSize=1;arcSize=14;strokeWidth=2;" vertex="1" parent="1">
          <mxGeometry x="-40" y="70" width="80" height="80" as="geometry" />
        </mxCell>
        <mxCell id="5rb6dhZWjBb2u9iBjQLc-43" style="edgeStyle=orthogonalEdgeStyle;rounded=0;orthogonalLoop=1;jettySize=auto;html=1;exitX=0.75;exitY=0;exitDx=0;exitDy=0;entryX=0.75;entryY=1;entryDx=0;entryDy=0;" edge="1" parent="1" source="5rb6dhZWjBb2u9iBjQLc-13" target="5rb6dhZWjBb2u9iBjQLc-17">
          <mxGeometry relative="1" as="geometry">
            <Array as="points">
              <mxPoint x="260" y="350" />
            </Array>
          </mxGeometry>
        </mxCell>
        <mxCell id="5rb6dhZWjBb2u9iBjQLc-44" value="Returns IP:&lt;br style=&quot;border-color: var(--border-color); font-size: 12px;&quot;&gt;&lt;span style=&quot;font-size: 12px;&quot;&gt;8.8.8.8&lt;/span&gt;" style="edgeLabel;html=1;align=center;verticalAlign=middle;resizable=0;points=[];" vertex="1" connectable="0" parent="5rb6dhZWjBb2u9iBjQLc-43">
          <mxGeometry x="-0.0605" y="1" relative="1" as="geometry">
            <mxPoint x="21" y="-14" as="offset" />
          </mxGeometry>
        </mxCell>
        <mxCell id="5rb6dhZWjBb2u9iBjQLc-13" value="DNS&lt;br&gt;server" style="rounded=1;whiteSpace=wrap;html=1;absoluteArcSize=1;arcSize=14;strokeWidth=2;" vertex="1" parent="1">
          <mxGeometry x="200" y="390" width="100" height="90" as="geometry" />
        </mxCell>
        <mxCell id="5rb6dhZWjBb2u9iBjQLc-20" style="edgeStyle=orthogonalEdgeStyle;rounded=0;orthogonalLoop=1;jettySize=auto;html=1;exitX=0.25;exitY=1;exitDx=0;exitDy=0;entryX=0.18;entryY=0;entryDx=0;entryDy=0;entryPerimeter=0;" edge="1" parent="1" source="5rb6dhZWjBb2u9iBjQLc-17" target="5rb6dhZWjBb2u9iBjQLc-13">
          <mxGeometry relative="1" as="geometry">
            <mxPoint x="220" y="340" as="targetPoint" />
            <Array as="points">
              <mxPoint x="220" y="255" />
              <mxPoint x="218" y="255" />
            </Array>
          </mxGeometry>
        </mxCell>
        <mxCell id="5rb6dhZWjBb2u9iBjQLc-23" value="&lt;font style=&quot;font-size: 12px;&quot;&gt;Requests&lt;br&gt;the IP for&lt;br&gt;www.foobar.com&lt;/font&gt;" style="edgeLabel;html=1;align=center;verticalAlign=middle;resizable=0;points=[];" vertex="1" connectable="0" parent="5rb6dhZWjBb2u9iBjQLc-20">
          <mxGeometry x="0.0222" y="-2" relative="1" as="geometry">
            <mxPoint x="-18" y="-6" as="offset" />
          </mxGeometry>
        </mxCell>
        <mxCell id="5rb6dhZWjBb2u9iBjQLc-25" style="edgeStyle=orthogonalEdgeStyle;rounded=0;orthogonalLoop=1;jettySize=auto;html=1;exitX=1;exitY=0.5;exitDx=0;exitDy=0;entryX=0.075;entryY=0.488;entryDx=0;entryDy=0;entryPerimeter=0;" edge="1" parent="1" source="5rb6dhZWjBb2u9iBjQLc-17" target="5rb6dhZWjBb2u9iBjQLc-2">
          <mxGeometry relative="1" as="geometry">
            <mxPoint x="310" y="150" as="targetPoint" />
          </mxGeometry>
        </mxCell>
        <mxCell id="5rb6dhZWjBb2u9iBjQLc-17" value="User router" style="whiteSpace=wrap;html=1;aspect=fixed;" vertex="1" parent="1">
          <mxGeometry x="200" y="70" width="80" height="80" as="geometry" />
        </mxCell>
        <mxCell id="5rb6dhZWjBb2u9iBjQLc-33" style="edgeStyle=orthogonalEdgeStyle;rounded=0;orthogonalLoop=1;jettySize=auto;html=1;exitX=0.5;exitY=1;exitDx=0;exitDy=0;exitPerimeter=0;entryX=0.5;entryY=0;entryDx=0;entryDy=0;entryPerimeter=0;" edge="1" parent="1" source="5rb6dhZWjBb2u9iBjQLc-31" target="5rb6dhZWjBb2u9iBjQLc-1">
          <mxGeometry relative="1" as="geometry" />
        </mxCell>
        <mxCell id="5rb6dhZWjBb2u9iBjQLc-31" value="Code base" style="shape=note;whiteSpace=wrap;html=1;backgroundOutline=1;darkOpacity=0.05;" vertex="1" parent="1">
          <mxGeometry x="800" y="420" width="80" height="100" as="geometry" />
        </mxCell>
        <mxCell id="5rb6dhZWjBb2u9iBjQLc-35" value="Server&lt;br&gt;8.8.8.8" style="rounded=1;whiteSpace=wrap;html=1;absoluteArcSize=1;arcSize=14;strokeWidth=2;" vertex="1" parent="1">
          <mxGeometry x="590" y="60" width="100" height="100" as="geometry" />
        </mxCell>
        <mxCell id="5rb6dhZWjBb2u9iBjQLc-41" style="edgeStyle=orthogonalEdgeStyle;rounded=0;orthogonalLoop=1;jettySize=auto;html=1;exitX=0.5;exitY=0;exitDx=0;exitDy=0;exitPerimeter=0;entryX=0.5;entryY=1;entryDx=0;entryDy=0;" edge="1" parent="1" source="5rb6dhZWjBb2u9iBjQLc-40" target="5rb6dhZWjBb2u9iBjQLc-8">
          <mxGeometry relative="1" as="geometry" />
        </mxCell>
        <mxCell id="5rb6dhZWjBb2u9iBjQLc-42" value="&lt;font style=&quot;font-size: 12px;&quot;&gt;Tries to access website&lt;/font&gt;" style="edgeLabel;html=1;align=center;verticalAlign=middle;resizable=0;points=[];" vertex="1" connectable="0" parent="5rb6dhZWjBb2u9iBjQLc-41">
          <mxGeometry x="0.0714" y="-2" relative="1" as="geometry">
            <mxPoint as="offset" />
          </mxGeometry>
        </mxCell>
        <mxCell id="5rb6dhZWjBb2u9iBjQLc-40" value="User" style="strokeWidth=2;html=1;shape=mxgraph.flowchart.start_1;whiteSpace=wrap;" vertex="1" parent="1">
          <mxGeometry x="-50" y="330" width="100" height="70" as="geometry" />
        </mxCell>
        <mxCell id="5rb6dhZWjBb2u9iBjQLc-47" value="&lt;h1 style=&quot;&quot;&gt;&lt;span style=&quot;font-size: 15px;&quot;&gt;&lt;span style=&quot;white-space: pre;&quot;&gt;&#x9;&lt;/span&gt;0. Basic design for a web stack&lt;/span&gt;&lt;/h1&gt;&lt;div style=&quot;&quot;&gt;&lt;span style=&quot;font-size: 15px;&quot;&gt;&amp;nbsp;- Multiple SPOF, no redundancies, no way to scale with increasing traffic&lt;/span&gt;&lt;/div&gt;&lt;div style=&quot;&quot;&gt;&lt;span style=&quot;font-size: 15px;&quot;&gt;&amp;nbsp;- Basic scenario : a user tries to access the website by accessing www.foobar.com&lt;span style=&quot;white-space: pre;&quot;&gt;&#x9;&lt;/span&gt;&lt;/span&gt;&lt;/div&gt;&lt;div style=&quot;&quot;&gt;&lt;span style=&quot;font-size: 15px;&quot;&gt;&amp;nbsp; &amp;nbsp;in his browser app.&lt;/span&gt;&lt;/div&gt;&lt;div style=&quot;&quot;&gt;&lt;span style=&quot;font-size: 15px;&quot;&gt;&lt;br&gt;&lt;/span&gt;&lt;/div&gt;" style="text;html=1;align=left;verticalAlign=middle;resizable=0;points=[];autosize=1;labelBackgroundColor=default;labelBorderColor=default;strokeWidth=1;rounded=0;spacing=2;" vertex="1" parent="1">
          <mxGeometry x="-120" y="550" width="590" height="150" as="geometry" />
        </mxCell>
        <mxCell id="5rb6dhZWjBb2u9iBjQLc-49" value="" style="rounded=0;whiteSpace=wrap;html=1;fillColor=none;" vertex="1" parent="1">
          <mxGeometry x="560" y="10" width="370" height="680" as="geometry" />
        </mxCell>
        <mxCell id="5rb6dhZWjBb2u9iBjQLc-50" value="&lt;h1&gt;&lt;font style=&quot;font-size: 16px;&quot;&gt;&lt;b&gt;REMOTE LINUX SERVER&lt;/b&gt;&lt;/font&gt;&lt;/h1&gt;" style="text;html=1;align=center;verticalAlign=middle;resizable=0;points=[];autosize=1;strokeColor=none;fillColor=none;" vertex="1" parent="1">
          <mxGeometry x="720" y="10" width="210" height="70" as="geometry" />
        </mxCell>
        <mxCell id="5rb6dhZWjBb2u9iBjQLc-51" value="" style="rounded=0;whiteSpace=wrap;html=1;fillColor=none;" vertex="1" parent="1">
          <mxGeometry x="-120" y="10" width="250" height="420" as="geometry" />
        </mxCell>
        <mxCell id="5rb6dhZWjBb2u9iBjQLc-52" value="&lt;h1&gt;&lt;font style=&quot;font-size: 16px;&quot;&gt;&lt;b&gt;USER MACHINE&lt;/b&gt;&lt;/font&gt;&lt;/h1&gt;" style="text;html=1;align=center;verticalAlign=middle;resizable=0;points=[];autosize=1;strokeColor=none;fillColor=none;" vertex="1" parent="1">
          <mxGeometry x="-120" width="150" height="70" as="geometry" />
        </mxCell>
      </root>
    </mxGraphModel>
  </diagram>
</mxfile>
